STARTFONT 2.1
FONT -shitty-fixturebitmap-medium-r-normal--8-80-75-75-C-80-ISO10646-1
SIZE 8 75 75
FONTBOUNDINGBOX 8 8 0 -1
STARTPROPERTIES 7
FONT_ASCENT 7
FONT_DESCENT 1
AVERAGE_WIDTH 80
FAMILY_NAME "Fixture Bitmap"
WEIGHT_NAME "Medium"
SLANT "R"
SPACING "C"
ENDPROPERTIES
CHARS 3
STARTCHAR space
ENCODING 32
SWIDTH 500 0
DWIDTH 8 0
BBX 8 8 0 -1
BITMAP
00
00
00
00
00
00
00
00
ENDCHAR
STARTCHAR A
ENCODING 65
SWIDTH 500 0
DWIDTH 8 0
BBX 8 8 0 -1
BITMAP
18
3C
66
66
7E
66
66
00
ENDCHAR
STARTCHAR B
ENCODING 66
SWIDTH 500 0
DWIDTH 8 0
BBX 8 8 0 -1
BITMAP
7C
66
66
7C
66
66
7C
00
ENDCHAR
ENDFONT
